<svg xmlns="http://www.w3.org/2000/svg" 
	 width="496" viewBox="0 0 496 496" enable-background="new 0 0 496 496" xml:space="preserve">
<path 
	d="
M185.485565,168.512772 
	C180.780182,164.432632 177.652649,158.881363 170.387222,157.443054 
	C175.625137,151.304443 180.064636,144.988388 187.355286,142.129425 
	C193.401978,139.758255 200.801361,143.681793 205.878876,150.946198 
	C209.853699,156.633011 209.843887,162.443222 205.351105,167.934799 
	C201.829712,172.238998 197.927765,176.246307 192.591110,180.389771 
	C192.927521,174.081436 188.570175,171.959000 185.485565,168.512772 
M193.612213,146.851990 
	C187.438339,144.551407 182.314072,147.089600 178.629684,154.450256 
	C183.480942,159.302750 188.392258,164.217056 193.306671,169.128265 
	C193.775803,169.597092 194.272827,170.038010 194.741959,170.506821 
	C196.050217,171.814224 197.194397,171.591736 198.639938,170.499802 
	C205.654495,165.200974 206.391815,159.217468 200.677094,152.624374 
	C198.822784,150.485062 196.767868,148.559723 193.612213,146.851990 
z"/>
<path 
	d="
M177.903351,213.830078 
	C168.786636,206.701019 158.278046,204.096878 147.015869,201.968063 
	C146.521881,200.546432 145.980286,198.234055 147.794601,196.642303 
	C149.379303,195.252014 151.268265,196.762466 152.916580,197.351486 
	C158.684616,199.412674 164.413467,201.583572 170.278931,203.757904 
	C169.509811,196.885849 166.722961,193.040344 162.382874,192.613831 
	C162.197281,188.471939 162.924133,186.549545 165.984940,183.394867 
	C168.804657,186.488907 166.330841,193.908340 173.088455,193.383820 
	C177.600983,193.033554 182.086990,191.397766 186.454010,188.718231 
	C187.759537,192.889801 185.366745,195.530487 183.818375,199.022659 
	C180.743759,195.760147 177.617065,196.394653 174.499054,198.234009 
	C172.921600,199.164597 173.626236,200.439621 173.991623,201.739410 
	C174.996109,205.312561 177.508636,206.034653 181.000397,205.053482 
	C181.115051,208.609192 180.134628,211.295013 177.903351,213.830078 
z"/>
<path 
	d="
M168.940323,307.660706 
	C164.787598,305.216949 162.768082,301.655182 161.299088,297.663330 
	C160.504593,295.504303 160.539261,293.420532 161.654846,291.400665 
	C162.646866,289.604553 163.866257,287.503113 166.208221,288.824249 
	C168.629227,290.189911 166.799164,291.880219 165.840790,293.395538 
	C163.426010,297.213715 165.379791,300.039856 168.148499,302.520660 
	C169.623260,303.842072 171.432343,304.048401 173.271072,303.118774 
	C175.131622,302.178101 176.047653,300.585114 175.643799,298.609253 
	C175.047089,295.689850 174.150925,292.830902 173.363831,289.951263 
	C171.966751,284.839966 173.286850,281.150696 177.367432,278.812164 
	C181.199036,276.616333 186.055511,277.243561 189.288620,280.585236 
	C192.114685,283.506195 193.972290,287.011536 194.839569,291.029388 
	C195.298874,293.157196 194.720215,294.993378 193.500092,296.660400 
	C192.428085,298.125061 190.941742,299.083038 189.221893,297.976715 
	C187.484787,296.859253 188.263977,295.406830 189.287949,294.143127 
	C191.389694,291.549438 190.999908,288.874817 189.431610,286.255920 
	C187.544128,283.104034 184.949463,281.167786 181.133621,282.714996 
	C177.492432,284.191406 177.819412,287.314026 178.515656,290.362793 
	C178.995956,292.465942 179.819244,294.492645 180.269394,296.600464 
	C182.064514,305.006226 177.951065,309.191620 168.940323,307.660706 
z"/>
<path  
	d="
M320.674622,157.554382 
	C319.655762,156.042679 318.893188,154.792450 317.893341,153.153214 
	C315.582916,156.750076 311.837585,159.426910 313.374084,164.867569 
	C309.312561,164.340881 306.788635,162.401169 305.004333,160.266663 
	C313.527161,152.342026 318.945679,143.001541 323.839355,131.817642 
	C322.792145,132.298645 323.111908,132.009491 323.378052,132.052460 
	C325.196136,132.345810 336.981873,139.025513 337.983917,140.280106 
	C339.406952,142.061813 340.091248,144.147919 339.682190,146.346466 
	C338.660767,151.835892 335.859375,156.300583 331.049835,159.204498 
	C327.453522,161.375870 324.013000,160.415161 320.674622,157.554382 
M334.542236,141.806198 
	C332.041565,138.899399 329.144714,138.516739 326.243530,140.963623 
	C323.236023,143.500183 321.566498,146.994232 320.575989,150.743027 
	C320.045715,152.750031 321.223541,154.268448 322.749359,155.437546 
	C324.350067,156.664032 326.174438,157.030182 327.812653,155.699417 
	C332.008606,152.290909 335.736115,148.561218 334.542236,141.806198 
z"/>
<path 
	d="
M251.310638,344.104248 
	C248.412140,344.839722 248.770203,342.858673 248.911316,341.524475 
	C249.134354,339.415924 249.728012,337.346558 250.328949,334.476868 
	C253.970276,338.309387 258.432373,341.001465 262.214722,338.418152 
	C265.445129,336.211761 263.675446,331.465759 261.823334,327.780273 
	C265.529053,326.181671 268.489899,327.689026 271.454590,328.378265 
	C267.191895,338.504059 266.978058,348.714172 267.345093,360.175812 
	C262.940399,361.125183 257.501923,358.853363 252.047760,358.975037 
	C250.409210,359.011597 248.762558,358.529419 247.114548,358.326080 
	C242.296371,357.731659 241.436615,355.591553 244.634827,350.077606 
	C247.121948,357.307312 253.253525,355.130005 258.225006,356.096008 
	C259.456543,356.335297 260.893311,356.279388 261.117584,354.905151 
	C261.702728,351.319397 262.411926,347.657013 262.211823,344.073212 
	C262.072968,341.585907 255.475998,341.511139 251.310638,344.104248 
z"/>
<path  
	d="
M390.466339,247.285034 
	C393.432098,239.510178 391.384705,235.443924 383.815979,233.698318 
	C380.058716,232.831772 376.162872,232.832855 372.397125,233.472916 
	C365.072510,234.717880 362.669434,242.312683 367.487183,248.446640 
	C368.440521,249.660492 370.641174,250.952850 368.755981,252.512283 
	C366.844696,254.093292 365.455811,251.973633 364.357971,250.609467 
	C358.369720,243.168762 361.996094,231.482376 371.114044,228.675812 
	C377.149231,226.818146 383.050049,227.576355 388.601929,230.194504 
	C395.849640,233.612411 397.880249,245.398209 392.441193,251.282150 
	C390.537689,253.341309 388.148560,254.375320 385.309326,254.229828 
	C384.023987,254.163971 383.028748,253.664719 382.887421,252.238495 
	C382.749390,250.845337 383.471710,249.991638 384.821808,249.827713 
	C386.846222,249.581955 388.756348,249.140594 390.466339,247.285034 
z"/>
<path 
	d="
M370.964539,274.728516 
	C373.304840,276.186554 375.066254,274.346130 376.964630,274.312042 
	C378.875977,276.399536 378.069122,278.603699 376.908081,280.308197 
	C375.587494,282.246857 373.569489,280.893372 371.905121,280.371735 
	C369.054504,279.478302 366.233459,278.485840 363.421112,277.476166 
	C360.477356,276.419312 357.563049,275.244080 353.645142,276.676392 
	C357.774445,271.576172 355.666901,264.973541 358.966034,259.956390 
	C361.476746,256.138214 365.219849,257.014038 368.867676,258.021515 
	C373.237152,259.228210 377.281067,262.385284 381.893585,259.770691 
	C383.774017,262.422699 383.033295,264.635590 381.772736,266.290985 
	C380.360657,268.145386 378.379822,266.591003 376.735077,266.068024 
	C373.413300,265.011810 370.179108,263.673462 366.842041,262.674286 
	C364.409332,261.945892 361.746033,261.428955 360.523895,264.634125 
	C359.351532,267.708801 360.224182,270.319611 363.178101,271.794464 
	C365.538849,272.973175 368.123993,273.702515 370.964539,274.728516 
z"/>
<path 
	d="
M159.730774,240.218750 
	C165.272888,238.877197 171.128845,240.197540 175.978500,235.502106 
	C175.744736,241.796463 178.724197,247.305267 178.816559,253.277939 
	C178.857391,255.918640 176.647888,257.675568 173.914810,258.199280 
	C171.018265,258.754303 168.503311,257.915863 167.052719,255.326355 
	C165.848129,253.175995 165.121964,250.756287 164.200012,248.449448 
	C163.569748,246.872482 162.970352,245.278854 160.821320,245.390686 
	C159.114792,245.479492 157.977005,246.448517 157.530701,247.984268 
	C156.997879,249.817780 157.156982,251.635925 158.794754,252.975540 
	C159.170456,253.282883 159.644714,253.487732 160.099808,253.676697 
	C161.601562,254.300217 163.500259,254.562103 163.360199,256.789398 
	C163.328552,257.292633 162.720551,258.035034 162.230209,258.185181 
	C160.348557,258.761383 158.641357,258.220642 157.140488,256.966766 
	C151.826263,252.527100 152.979813,243.801392 159.730774,240.218750 
M167.105072,246.924667 
	C167.463760,248.022324 167.758240,249.146332 168.195129,250.211914 
	C168.989365,252.149048 170.132858,253.843338 172.560501,253.407410 
	C174.310425,253.093170 175.534119,252.009354 175.576797,250.012939 
	C175.633804,247.345764 174.276123,245.449966 171.889862,244.729568 
	C170.162430,244.208069 167.656387,242.839706 167.105072,246.924667 
z"/>
<path  
	d="
M224.456894,316.596863 
	C229.311264,318.185791 233.713120,320.776764 238.936569,321.717651 
	C243.233124,322.491577 243.992584,326.451660 242.594452,331.529724 
	C241.322556,336.149445 237.115448,340.172333 239.998444,345.485046 
	C237.461395,346.707306 235.232422,346.820190 233.561752,345.220612 
	C231.724472,343.461548 233.419403,341.467194 234.045029,339.686279 
	C235.201859,336.393433 236.518341,333.154968 237.828918,329.918427 
	C238.705688,327.753174 239.143188,325.716766 236.741058,324.224670 
	C234.313385,322.716705 231.644165,322.639069 229.981033,324.925568 
	C226.800064,329.298920 223.864273,333.950867 225.638519,340.005646 
	C223.784927,342.047882 221.584488,340.948364 219.843765,339.951080 
	C217.672562,338.707123 219.066360,336.691101 219.657425,335.064941 
	C220.963654,331.471100 222.332932,327.896820 223.802231,324.366882 
	C224.682922,322.251007 225.016388,320.237122 223.892365,317.613525 
	C224.173889,316.893585 224.315399,316.745209 224.456894,316.596863 
z"/>
<path 
	d="
M266.077850,131.917343 
	C263.930481,132.350525 261.175812,131.416183 261.691010,134.818115 
	C262.142975,137.802597 265.956299,140.025223 268.983093,139.266357 
	C271.018372,138.756042 272.391357,136.442856 274.845886,137.094803 
	C275.955078,138.620560 275.078674,139.588928 273.969147,140.453781 
	C268.451355,144.754761 259.258423,142.282364 256.876648,135.719116 
	C254.964508,130.450012 254.820099,125.067726 258.853241,120.734917 
	C261.926208,117.433632 266.086365,117.047623 270.383728,118.572502 
	C272.741425,119.409111 274.266968,120.970108 275.266663,123.215416 
	C277.716522,128.717590 276.428345,130.931534 270.450775,131.415771 
	C269.128052,131.522934 267.812927,131.724075 266.077850,131.917343 
M267.134369,121.251320 
	C265.626648,121.157738 264.062653,121.067574 262.956970,122.308052 
	C261.450836,123.997765 260.385803,125.941093 262.066406,128.056473 
	C263.046326,129.289886 270.490784,128.964157 271.008575,127.647881 
	C272.214844,124.581390 270.518311,122.683823 267.134369,121.251320 
z"/>
<path 
	d="
M293.126129,142.483643 
	C289.579010,132.393799 295.784515,122.443779 304.584930,123.533226 
	C309.350647,124.123207 313.145416,126.134163 314.580872,131.175278 
	C315.831604,135.567841 313.336792,143.067474 309.533203,146.023651 
	C305.600250,149.080429 301.526093,148.573654 297.390808,146.398758 
	C295.732544,145.526581 294.335449,144.411331 293.126129,142.483643 
M307.262299,127.428581 
	C305.592133,126.484818 303.947021,126.111252 302.105682,127.137238 
	C298.795441,128.981674 295.453674,137.259964 296.712616,140.739502 
	C297.992950,144.278259 302.109344,145.692245 305.277649,143.681610 
	C309.812927,140.803482 311.184692,132.482880 307.262299,127.428581 
z"/>
<path  
	d="
M348.127777,167.828568 
	C346.261322,165.909546 344.650299,164.224442 342.985352,162.594376 
	C342.658752,162.274582 342.123779,162.167587 341.517334,161.884109 
	C338.719788,164.143143 338.706360,166.888443 339.896637,169.905426 
	C341.139252,173.054886 345.201752,172.342834 347.016998,174.865173 
	C342.969238,177.073730 338.749695,175.107925 336.099579,169.975296 
	C333.192474,164.344940 335.807648,157.934143 342.718353,153.750122 
	C347.960663,150.576202 352.916992,151.649826 356.615417,156.760452 
	C359.766937,161.115356 358.692566,167.474869 354.330780,170.554459 
	C350.989502,172.913513 350.150116,169.390686 348.127777,167.828568 
M346.854034,161.744675 
	C348.541077,163.171265 349.421967,165.612152 351.961029,165.979813 
	C354.031158,164.575180 354.857666,162.685669 354.600189,160.395157 
	C354.351288,158.180603 352.968597,156.817276 350.812958,156.395020 
	C348.764435,155.993759 346.785858,156.407944 345.370422,157.992767 
	C344.075500,159.442673 345.602509,160.314270 346.854034,161.744675 
z"/>
<path 
	d="
M227.114105,147.465515 
	C227.792816,146.316055 228.334702,145.229462 229.529694,145.816788 
	C230.919418,146.499878 230.497162,147.922882 230.032974,148.881134 
	C227.964966,153.150208 224.373993,155.278839 219.713409,155.512344 
	C213.896088,155.803802 208.379868,150.226028 207.098145,142.911896 
	C206.284439,138.268570 208.988632,134.037704 214.104446,132.272675 
	C217.395660,131.137161 220.618546,131.216446 223.485916,133.599075 
	C228.281616,137.584015 228.078049,139.992020 222.690628,143.053497 
	C220.817947,144.117676 218.982300,145.250305 217.166702,146.409576 
	C216.625229,146.755325 216.209305,147.297760 215.759430,147.727570 
	C218.711945,153.402466 222.786209,153.376053 227.114105,147.465515 
M212.514511,143.404480 
	C214.954010,145.099121 216.518936,142.909576 218.238373,141.955002 
	C219.675674,141.157074 222.146423,140.595932 221.234467,138.139725 
	C220.304779,135.635773 217.960815,134.759277 215.516449,135.288193 
	C211.180420,136.226410 210.617371,139.134933 212.514511,143.404480 
z"/>
<path  
	d="
M333.257751,312.418396 
	C327.451538,309.391815 327.403778,309.414185 320.847687,318.041016 
	C318.771301,316.728210 319.439697,314.957672 320.120148,313.356232 
	C322.513214,307.724091 330.481689,305.027893 335.731354,308.299530 
	C340.493622,311.267395 343.543945,315.555573 343.286560,321.447998 
	C343.075073,326.289368 339.677460,328.718567 335.623962,330.294708 
	C331.701660,331.819824 325.950134,329.196808 324.216187,325.423553 
	C323.290314,323.408783 324.338867,322.314819 325.749512,321.251068 
	C328.006287,319.549347 330.249176,317.829224 332.509277,316.131958 
	C333.743042,315.205383 335.147034,314.352112 333.257751,312.418396 
M333.059387,326.746277 
	C333.874084,326.736938 334.725342,326.877838 335.496643,326.690216 
	C337.853760,326.116791 339.213409,324.444061 339.308899,322.117218 
	C339.374756,320.512146 338.963379,318.581604 337.345917,317.853577 
	C335.295258,316.930542 334.098389,318.964569 332.741425,319.990143 
	C331.383392,321.016510 329.326874,321.476318 329.090088,323.800568 
	C329.806641,325.103760 331.000946,325.925323 333.059387,326.746277 
z"/>
<path 
	d="
M242.985382,144.952637 
	C240.122650,141.479752 237.570084,138.195633 234.987595,134.935196 
	C232.644211,131.976654 230.881927,128.381668 225.737839,127.823799 
	C229.353104,124.010910 232.970627,123.955864 236.931274,123.601273 
	C235.323929,130.091049 240.414810,132.702515 242.876480,137.063797 
	C245.412918,130.840576 245.347778,127.003746 242.704895,121.932899 
	C245.053284,120.316086 247.467911,119.257858 250.913010,120.288551 
	C246.671783,127.106949 247.837509,134.789398 246.370529,141.978775 
	C245.992081,143.833435 246.161942,145.878555 242.985382,144.952637 
z"/>
<path  
	d="
M214.587997,311.345856 
	C211.839844,310.911133 209.951645,311.959564 208.259613,314.229126 
	C204.986618,318.619354 201.402267,322.778259 197.925446,327.015350 
	C195.945251,329.428589 193.761612,331.737671 194.856857,335.452057 
	C191.868912,335.941406 189.648987,335.034698 188.396759,333.075958 
	C186.974457,330.851166 189.408890,329.506958 190.562057,328.056152 
	C194.799957,322.724365 199.113724,317.450989 203.490707,312.232605 
	C205.432587,309.917419 207.366104,307.685211 206.364807,303.922516 
	C210.685089,304.724915 212.797958,307.446716 215.022278,310.443604 
	C214.850250,311.075623 214.719116,311.210754 214.587997,311.345856 
z"/>
<path 
	d="
M177.231049,227.747421 
	C172.999161,233.777710 164.766159,235.352783 158.482483,231.680923 
	C153.942947,229.028244 152.445511,223.553162 154.595032,218.071930 
	C155.851730,214.867355 158.266129,213.429291 161.471725,213.152435 
	C162.828827,213.035233 164.250137,213.420120 164.388412,215.168869 
	C164.503983,216.630341 163.430115,217.132751 162.195953,217.404236 
	C160.231949,217.836288 158.177094,218.197372 157.414001,220.452316 
	C157.153595,221.221802 157.064377,222.087341 157.080856,222.905289 
	C157.131104,225.402878 158.555603,226.920486 160.841202,227.612991 
	C165.054031,228.889359 169.393997,229.937866 173.202103,226.812607 
	C175.240646,225.139603 175.869110,222.695602 174.824936,220.005539 
	C174.258316,218.545715 172.824478,217.190781 173.935898,215.387802 
	C178.293915,216.305466 179.388412,220.147385 177.231049,227.747421 
z"/>
<path  
	d="
M215.177307,310.737061 
	C218.875153,311.430511 221.841293,313.195038 224.319275,316.284912 
	C224.315399,316.745209 224.173889,316.893585 223.819397,317.264801 
	C221.064896,316.924805 219.631775,318.265076 218.391098,320.281921 
	C214.919434,325.925507 211.493729,331.609070 207.727798,337.054138 
	C206.231308,339.217865 207.037354,341.429413 206.733398,343.816956 
	C204.112198,344.048096 201.766022,343.680664 200.405975,341.648773 
	C199.150833,339.773590 201.108154,338.261719 202.006256,336.807129 
	C205.922348,330.464569 209.914352,324.167053 213.992065,317.927216 
	C215.256729,315.991974 216.120911,314.189331 214.668839,311.674561 
	C214.719116,311.210754 214.850250,311.075623 215.177307,310.737061 
z"/>
<path  
	d="
M288.003265,125.726158 
	C285.839539,137.476181 285.836273,137.676086 287.761261,142.831924 
	C284.412415,143.738739 281.333313,143.501465 278.772278,141.876648 
	C282.848511,131.358871 284.266083,120.821899 283.323334,109.795967 
	C284.457947,107.903404 286.600769,107.258263 288.820892,108.502464 
	C290.827667,109.627098 289.979797,111.681450 289.717865,113.469826 
	C289.141388,117.405769 288.624695,121.350456 288.003265,125.726158 
z"/>
<path  
	d="
M335.112000,301.241608 
	C338.793640,293.912445 343.117157,292.879578 349.026154,297.617188 
	C350.449951,298.758759 351.856171,299.945923 353.121887,301.255737 
	C355.391632,303.604553 357.839752,305.332062 362.051422,303.817474 
	C360.573151,307.461212 361.193909,310.370941 361.952789,313.094635 
	C359.739410,314.730591 358.796387,312.128662 357.008575,312.272400 
	C355.431122,312.551849 354.887909,315.240692 352.586517,314.640594 
	C350.831970,312.303589 354.238495,311.319946 353.862854,308.666565 
	C351.347748,306.416992 348.411133,303.769440 345.449585,301.150146 
	C343.912964,299.791107 342.230438,298.499176 340.112152,299.777527 
	C337.755402,301.199860 338.690704,303.110596 339.591766,304.995331 
	C339.839569,305.513641 339.705109,306.214722 339.766815,307.144714 
	C335.519836,307.233368 335.403198,304.307129 335.112000,301.241608 
z"/>
<path  
	d="
M165.130341,280.631287 
	C161.601837,281.209717 160.087128,277.327911 155.622696,277.814331 
	C158.808380,274.871063 161.072189,272.615540 158.737350,269.358032 
	C159.744614,268.989563 160.069992,268.742554 160.343048,268.790894 
	C162.579346,269.186981 162.163437,273.262177 164.998886,272.495117 
	C169.291229,271.333984 173.851318,270.482239 177.410645,267.694305 
	C179.625992,265.959076 179.521332,263.607025 176.402206,262.411530 
	C175.360626,262.012329 174.044189,262.347931 173.267090,261.227936 
	C175.240265,258.301117 177.569290,258.039673 180.201752,260.450531 
	C184.285568,264.190613 183.566544,270.413696 178.548843,272.936249 
	C175.604568,274.416412 172.395523,275.370300 169.304367,276.557739 
	C167.454910,277.268158 165.387619,277.739258 165.130341,280.631287 
z"/>
<path  
	d="
M346.199768,181.854034 
	C345.866211,180.377823 346.060425,179.610016 347.515900,179.628098 
	C355.008911,179.721146 359.697021,175.212006 364.243408,169.797318 
	C368.887848,171.058151 369.731750,172.761368 367.116211,177.165741 
	C369.626282,178.013092 372.086914,178.978119 373.536438,181.356949 
	C374.234589,182.502747 374.263947,183.554977 373.137238,184.435196 
	C372.194794,185.171448 371.345154,184.816788 370.413269,184.258362 
	C361.267883,178.777740 356.599304,179.739929 350.911499,188.440308 
	C348.504547,186.965332 347.602722,184.423141 346.199768,181.854034 
z"/>
<path 
	d="
M312.797791,316.774292 
	C315.163177,316.055817 316.138336,316.086945 315.797638,318.887329 
	C315.187653,323.901154 320.225586,333.043091 324.427856,335.481720 
	C321.237091,340.837677 319.669098,341.120728 316.684753,336.716400 
	C315.703613,339.428528 314.567230,341.935486 311.900269,343.322968 
	C310.601532,343.998627 309.393799,344.344543 308.435944,342.885376 
	C307.633026,341.662109 308.304077,340.794800 309.153046,339.852051 
	C315.684021,332.600067 315.070526,326.944031 307.040863,320.647949 
	C307.854218,317.986115 310.653320,318.136963 312.797791,316.774292 
z"/>
<path  
	d="
M359.324463,288.671570 
	C358.018219,287.890289 357.040283,287.251617 356.000580,286.737976 
	C354.242554,285.869507 352.434357,284.539185 350.515289,286.296692 
	C348.466339,288.173096 349.791595,289.844360 350.962585,291.533051 
	C351.481537,292.281372 351.335144,293.103485 350.442017,294.013214 
	C346.750061,292.946899 345.154694,290.504089 346.183655,286.680115 
	C347.394958,282.178192 351.754639,279.568329 355.784393,281.218811 
	C359.132996,282.590240 362.179016,284.707245 365.340851,286.525635 
	C367.472137,287.751312 369.475098,289.947937 371.530334,286.850555 
	C373.799042,288.384888 372.083130,289.932465 372.439636,291.288666 
	C372.813171,292.709717 374.266479,293.752686 373.753082,295.828705 
	C370.512726,295.097900 367.927124,296.745178 365.449036,299.143066 
	C365.196136,292.512726 365.196136,292.512726 359.324463,288.671570 
z"/>
<path  
	d="
M362.601990,212.757111 
	C359.914398,212.987808 358.826752,211.747086 358.914093,209.551605 
	C358.964722,208.278183 359.893433,207.465866 361.084656,207.077255 
	C362.577576,206.590225 363.732513,207.166748 364.438965,208.480759 
	C365.438599,210.340225 364.621033,211.649307 362.601990,212.757111 
z"/>
<path
	d="
M283.595978,325.956055 
	C287.003815,325.834106 287.821350,327.670319 287.012024,330.116333 
	C286.409088,331.938507 284.570190,332.628113 282.981903,331.370911 
	C280.876709,329.704559 280.953583,327.730316 283.595978,325.956055 
z"/>
</svg>
